<?xml version="1.0" encoding="utf-8"?>
<!-- Generator: Adobe Illustrator 16.0.0, SVG Export Plug-In . SVG Version: 6.00 Build 0)  -->
<!DOCTYPE svg PUBLIC "-//W3C//DTD SVG 1.1//EN" "http://www.w3.org/Graphics/SVG/1.1/DTD/svg11.dtd">
<svg version="1.1" id="Layer_1" xmlns="http://www.w3.org/2000/svg" xmlns:xlink="http://www.w3.org/1999/xlink" x="0px" y="0px"
	 width="211px" height="64px" viewBox="0 0 211 64" enable-background="new 0 0 211 64" xml:space="preserve">
<g>
	<path fill-rule="evenodd" clip-rule="evenodd" fill="#C1C1C1" d="M197.447,21.903c0.831-1.421,1.574-2.642,2.269-3.89
		c1.095-1.972,2.16-3.962,3.236-5.946c0.112-0.207,0.214-0.418,0.308-0.634c0.479-1.084,0.289-1.417-0.905-1.595
		c-0.302-0.044-0.604-0.106-0.907-0.13c-0.565-0.044-0.705-0.407-0.655-0.882c0.05-0.465,0.308-0.673,0.81-0.669
		c2.748,0.018,5.496,0.021,8.244,0c0.502-0.004,0.688,0.245,0.734,0.658c0.047,0.416,0.002,0.81-0.539,0.904
		c-0.346,0.061-0.685,0.18-1.034,0.218c-1.395,0.153-2.388,0.881-3.11,2.059c-2.053,3.346-4.121,6.683-6.178,10.025
		c-0.761,1.236-1.091,2.578-1.04,4.035c0.058,1.644,0.013,3.293,0.094,4.935c0.074,1.506,0.545,1.973,2.036,2.224
		c0.604,0.102,1.212,0.182,1.82,0.222c0.605,0.042,0.741,0.394,0.702,0.907c-0.037,0.492-0.287,0.663-0.791,0.659
		c-4.089-0.021-8.179-0.027-12.268-0.008c-0.548,0.002-0.789-0.18-0.818-0.702c-0.028-0.488,0.114-0.808,0.677-0.862
		c0.748-0.071,1.493-0.181,2.234-0.301c0.922-0.151,1.553-0.695,1.581-1.63c0.063-2.133,0.108-4.275-0.007-6.405
		c-0.042-0.776-0.495-1.562-0.873-2.284c-1.752-3.329-3.542-6.635-5.318-9.949c-0.19-0.353-0.403-0.691-0.604-1.036
		c-0.62-1.057-1.506-1.719-2.743-1.882c-0.372-0.048-0.734-0.17-1.106-0.214c-0.591-0.072-0.637-0.471-0.592-0.924
		c0.047-0.479,0.303-0.657,0.807-0.654c3.313,0.022,6.627,0.022,9.94,0.003c0.504-0.003,0.758,0.19,0.82,0.654
		c0.063,0.479-0.089,0.838-0.636,0.907c-0.069,0.009-0.137,0.035-0.205,0.051c-1.698,0.403-1.881,0.71-1.104,2.241
		C193.974,15.253,195.669,18.474,197.447,21.903z"/>
	<path fill-rule="evenodd" clip-rule="evenodd" fill="#C1C1C1" d="M185.608,53.967c2.319-0.041,4.285,1.181,4.981,3.098
		c0.679,1.866,0.141,3.947-1.342,5.182c-1.913,1.595-5.107,1.63-7.07,0.076c-2.233-1.767-2.307-5.245-0.146-7.104
		C183.058,54.337,184.276,53.988,185.608,53.967z M185.691,54.968c-2.266-0.008-3.946,1.56-3.967,3.704
		c-0.023,2.162,1.683,3.8,3.956,3.797c2.229,0,3.939-1.627,3.943-3.751C189.628,56.588,187.936,54.976,185.691,54.968z"/>
	<g>
		<path fill-rule="evenodd" clip-rule="evenodd" fill="#C1C1C1" d="M107.467,17.083c0,3.715-0.01,7.429,0.008,11.143
			c0.005,0.821,0.052,1.649,0.175,2.458c0.231,1.512,0.899,2.202,2.401,2.451c0.946,0.157,1.912,0.217,2.873,0.269
			c0.563,0.03,0.729,0.292,0.697,0.807c-0.031,0.527-0.254,0.706-0.803,0.704c-4.771-0.024-9.542-0.025-14.313-0.008
			c-0.506,0.002-0.75-0.137-0.773-0.646c-0.023-0.471,0.039-0.821,0.642-0.862c0.702-0.048,1.402-0.155,2.095-0.281
			c1.302-0.24,1.895-0.815,2.089-2.129c0.133-0.904,0.197-1.824,0.199-2.738c0.016-6.794,0.016-13.589,0.001-20.384
			c-0.002-1.102-0.047-2.21-0.173-3.304c-0.136-1.182-0.641-1.641-1.802-1.822c-0.58-0.091-1.165-0.167-1.75-0.21
			c-0.436-0.03-0.719-0.149-0.717-0.655c0.002-0.52,0.296-0.706,0.752-0.734c1.689-0.104,3.378-0.294,5.068-0.284
			c3.216,0.019,6.442,0.021,9.646,0.277c2.979,0.24,5.806,1.123,8.198,3.071c3.78,3.079,4.761,8.297,2.18,12.138
			c-1.875,2.789-4.609,4.262-7.906,4.585c-1.886,0.187-3.798,0.121-5.698,0.125c-0.222,0-0.616-0.25-0.633-0.415
			c-0.045-0.438,0.264-0.6,0.721-0.641c1.353-0.125,2.731-0.187,4.043-0.507c3.188-0.778,5.105-3.031,5.538-6.286
			c0.3-2.255,0.226-4.477-0.885-6.526c-1.453-2.686-3.937-3.734-6.808-3.999c-1.184-0.109-2.397-0.051-3.582,0.075
			c-1.109,0.118-1.479,0.645-1.481,1.773C107.464,8.713,107.467,12.898,107.467,17.083z"/>
		<path fill-rule="evenodd" clip-rule="evenodd" fill="#C1C1C1" d="M30.415,2.197c0.193,2.34,0.377,4.681,0.585,7.021
			c0.04,0.449-0.119,0.687-0.553,0.704c-0.41,0.014-0.871,0.099-1.017-0.487c-0.182-0.729-0.329-1.473-0.588-2.174
			c-1.253-3.389-3.916-4.85-7.321-5.179C13.863,1.338,7.896,5.889,6.506,13.627c-1.063,5.919,0.169,11.311,4.392,15.742
			c3.671,3.854,8.181,5.104,13.337,3.599c2.925-0.852,4.843-2.885,6.057-5.611c0.243-0.546,0.571-0.674,1.096-0.596
			c0.483,0.073,0.751,0.295,0.573,0.809c-0.691,1.991-1.391,3.981-2.096,5.967c-0.211,0.595-0.684,0.785-1.281,0.929
			c-4.321,1.046-8.692,1.337-13.093,0.781C5.365,33.967,0.183,26.304,0.413,17.593C0.616,9.972,4.75,4.92,11.437,1.825
			c4.707-2.18,9.635-2.303,14.608-0.92C27.491,1.307,28.924,1.754,30.415,2.197z"/>
		<path fill-rule="evenodd" clip-rule="evenodd" fill="#C1C1C1" d="M127.32,22.14c0.055-7.892,5.416-13.786,12.875-14.564
			c3.489-0.363,6.885-0.019,9.993,1.696c4.825,2.665,6.893,6.975,6.854,12.333c-0.062,8.304-6.398,14.214-14.939,14.063
			c-2.989-0.054-5.849-0.63-8.42-2.218C129.337,30.768,127.431,26.733,127.32,22.14z M151.937,22.206
			c-0.087-3.392-0.815-6.771-3.105-9.644c-3.794-4.761-11.097-4.421-14.426,0.66c-1.176,1.795-1.695,3.812-1.854,5.923
			c-0.285,3.771,0.264,7.381,2.39,10.593c2.106,3.182,5.146,4.537,8.907,4.071c3.59-0.442,5.907-2.558,7.176-5.884
			C151.701,26.146,151.903,24.282,151.937,22.206z"/>
		<path fill-rule="evenodd" clip-rule="evenodd" fill="#C1C1C1" d="M56.171,34.937c-1.551,0-3.102-0.021-4.652,0.012
			c-0.546,0.011-1.009,0.019-1.078-0.667c-0.065-0.65,0.304-0.872,0.888-0.902c0.304-0.017,0.606-0.08,0.906-0.137
			c1.035-0.2,1.25-0.523,0.909-1.513c-0.466-1.355-0.978-2.695-1.473-4.041c-0.186-0.507-0.375-1.013-0.567-1.517
			c-0.208-0.542-0.597-0.825-1.185-0.825c-2.352,0-4.703-0.003-7.054,0c-0.551,0-0.953,0.242-1.141,0.773
			c-0.66,1.859-1.348,3.71-1.953,5.586c-0.296,0.919-0.046,1.225,0.907,1.43c0.459,0.098,0.92,0.197,1.385,0.264
			c0.58,0.083,0.639,0.487,0.593,0.935c-0.043,0.435-0.276,0.632-0.758,0.629c-2.795-0.021-5.592-0.024-8.387-0.002
			c-0.478,0.004-0.721-0.175-0.772-0.609c-0.053-0.446,0.007-0.862,0.572-0.961c0.138-0.024,0.273-0.081,0.412-0.094
			c2.095-0.195,3.357-1.415,4.077-3.306c1.463-3.843,2.936-7.683,4.392-11.528c0.848-2.242,1.655-4.499,2.513-6.737
			c0.247-0.643,0.055-1.038-0.525-1.283c-0.516-0.218-1.04-0.442-1.583-0.569c-0.649-0.151-0.74-0.577-0.688-1.11
			c0.053-0.527,0.385-0.683,0.886-0.673c1.995,0.037,3.992,0.021,5.984,0.104c0.283,0.011,0.68,0.403,0.797,0.706
			c0.379,0.986,0.614,2.025,0.974,3.018c1.967,5.435,3.954,10.864,5.939,16.292c0.331,0.905,0.687,1.801,1.028,2.702
			c0.472,1.246,1.37,1.991,2.667,2.268c0.368,0.079,0.734,0.169,1.105,0.222c0.551,0.08,0.691,0.436,0.636,0.911
			c-0.054,0.474-0.322,0.663-0.82,0.655c-1.645-0.025-3.29-0.009-4.934-0.009C56.171,34.951,56.171,34.945,56.171,34.937z
			 M46.43,13.697c-0.075-0.002-0.149-0.004-0.224-0.006c-0.129,0.238-0.276,0.468-0.383,0.716c-0.314,0.732-0.63,1.465-0.913,2.21
			c-0.657,1.734-1.306,3.469-1.935,5.213c-0.334,0.929-0.141,1.454,0.641,1.483c1.851,0.071,3.706,0.047,5.559,0.021
			c0.486-0.008,0.697-0.344,0.563-0.838c-0.056-0.204-0.107-0.409-0.18-0.607c-0.864-2.358-1.727-4.714-2.603-7.067
			C46.812,14.436,46.606,14.072,46.43,13.697z"/>
		<path fill-rule="evenodd" clip-rule="evenodd" fill="#C1C1C1" d="M171.414,34.942c-3.312,0-6.625-0.009-9.938,0.012
			c-0.491,0.002-0.775-0.133-0.811-0.634c-0.033-0.48,0.018-0.881,0.653-0.946c0.606-0.061,1.208-0.188,1.798-0.338
			c0.863-0.221,1.163-0.593,1.252-1.48c0.036-0.35,0.041-0.704,0.041-1.056c0.002-5.712,0.002-11.424,0.002-17.136
			c0-3.039-0.151-3.231-3.152-3.661c-0.643-0.091-0.859-0.398-0.779-0.989c0.054-0.395,0.233-0.607,0.697-0.606
			c3.686,0.019,7.374,0.019,11.063,0.005c0.461-0.001,0.649,0.216,0.696,0.608c0.049,0.416,0.011,0.818-0.498,0.951
			c-0.589,0.153-1.185,0.288-1.775,0.449c-0.894,0.242-1.404,0.843-1.488,1.756c-0.084,0.911-0.141,1.828-0.142,2.743
			c-0.013,4.724-0.015,9.45,0.01,14.174c0.004,0.771,0.135,1.542,0.241,2.308c0.104,0.748,0.556,1.241,1.272,1.447
			c0.538,0.156,1.095,0.327,1.647,0.342c1.642,0.044,3.288,0.09,4.926-0.005c2.011-0.117,3.383-1.274,4.289-3.016
			c0.281-0.541,0.515-1.108,0.751-1.669c0.228-0.541,0.663-0.541,1.12-0.446c0.503,0.107,0.604,0.452,0.484,0.912
			c-0.494,1.905-0.983,3.812-1.472,5.719c-0.119,0.465-0.396,0.581-0.879,0.577c-3.336-0.026-6.673-0.014-10.011-0.014
			C171.414,34.946,171.414,34.945,171.414,34.942z"/>
		<path fill-rule="evenodd" clip-rule="evenodd" fill="#C1C1C1" d="M74.494,34.938c-3.268,0-6.536-0.013-9.804,0.013
			c-0.546,0.005-0.864-0.123-0.902-0.693c-0.034-0.522,0.146-0.83,0.73-0.896c0.675-0.077,1.344-0.228,2.006-0.384
			c0.763-0.18,1.228-0.682,1.351-1.456c0.087-0.555,0.165-1.119,0.166-1.679c0.014-5.526,0.031-11.053,0.004-16.578
			c-0.013-2.687-0.35-3.036-2.976-3.499c-0.208-0.037-0.417-0.075-0.628-0.094C63.869,9.623,63.769,9.234,63.8,8.77
			c0.033-0.479,0.284-0.676,0.792-0.662c2.444,0.071,4.888,0.133,7.333,0.149c1.268,0.01,2.538-0.063,3.806-0.136
			c0.51-0.029,0.828,0.101,0.866,0.649c0.036,0.507-0.106,0.854-0.689,0.948c-0.531,0.085-1.049,0.256-1.571,0.395
			c-0.932,0.248-1.424,0.881-1.523,1.813c-0.074,0.701-0.131,1.407-0.133,2.111c-0.012,4.797-0.018,9.595,0.003,14.393
			c0.003,0.842,0.116,1.687,0.225,2.525c0.14,1.075,0.832,1.688,1.852,1.851c2.032,0.325,4.079,0.35,6.104-0.045
			c1.676-0.329,2.757-1.445,3.519-2.904c0.282-0.54,0.515-1.106,0.754-1.668c0.231-0.542,0.673-0.522,1.127-0.43
			c0.473,0.098,0.584,0.441,0.479,0.861c-0.481,1.91-0.973,3.816-1.461,5.726c-0.123,0.477-0.397,0.623-0.916,0.618
			c-3.291-0.033-6.583-0.017-9.875-0.017C74.493,34.945,74.494,34.942,74.494,34.938z"/>
		<path fill-rule="evenodd" clip-rule="evenodd" fill="#C1C1C1" d="M2.891,45.946c0-0.278,0-0.507,0-0.788
			c68.491,0,136.954,0,205.469,0c0,0.243,0,0.489,0,0.788C139.898,45.946,71.431,45.946,2.891,45.946z"/>
		<path fill-rule="evenodd" clip-rule="evenodd" fill="#C1C1C1" d="M46.297,54.266c0.866-0.205,1.497-0.076,2.066,0.715
			c1.496,2.079,3.097,4.079,4.658,6.109c0.109,0.143,0.227,0.276,0.466,0.565c0-2.578,0-4.977,0-7.42c0.428,0,0.769,0,1.162,0
			c0,2.964,0,5.909,0,8.854c-1.044,0.322-1.385,0.219-2.02-0.608c-1.687-2.195-3.374-4.391-5.206-6.562c0,2.41,0,4.818,0,7.263
			c-0.43,0-0.75,0-1.125,0C46.297,60.204,46.297,57.237,46.297,54.266z"/>
		<path fill-rule="evenodd" clip-rule="evenodd" fill="#C1C1C1" d="M125.793,53.964c3.599,0.023,5.904,2.735,5.12,5.92
			c-0.354,1.442-1.249,2.464-2.596,3.06c-1.583,0.699-3.205,0.712-4.801,0.053c-2.016-0.831-3.135-2.831-2.823-4.94
			c0.321-2.173,2.009-3.762,4.289-4.033C125.285,53.988,125.592,53.977,125.793,53.964z M125.89,54.966
			c-2.295-0.008-3.977,1.579-3.977,3.749c0,2.129,1.678,3.741,3.912,3.754c2.264,0.016,3.975-1.604,3.978-3.762
			C129.807,56.573,128.133,54.973,125.89,54.966z"/>
		<path fill-rule="evenodd" clip-rule="evenodd" fill="#C1C1C1" d="M141.695,58.447c1.509,0.601,2.095,1.318,2.017,2.426
			c-0.082,1.169-0.845,2.008-2.379,2.175c-1.451,0.16-2.933,0.036-4.438,0.036c0-2.903,0-5.854,0-8.951
			c1.474,0.068,2.928,0.062,4.361,0.228c0.952,0.109,1.745,0.634,1.914,1.698c0.169,1.072-0.323,1.811-1.289,2.259
			C141.82,58.345,141.77,58.396,141.695,58.447z M138.038,62.275c1.052-0.054,2.038-0.025,2.996-0.176
			c0.95-0.149,1.438-0.76,1.42-1.49c-0.019-0.766-0.576-1.39-1.508-1.501c-0.835-0.099-1.687-0.076-2.528-0.063
			c-0.129,0.003-0.357,0.236-0.362,0.368C138.022,60.323,138.038,61.233,138.038,62.275z M138.069,58.109
			c1.043-0.094,2.001-0.124,2.937-0.288c0.608-0.106,0.931-0.606,0.938-1.242c0.008-0.616-0.311-1.096-0.893-1.192
			c-0.97-0.162-1.962-0.194-2.982-0.286C138.069,56.17,138.069,57.052,138.069,58.109z"/>
		<path fill-rule="evenodd" clip-rule="evenodd" fill="#C1C1C1" d="M31.258,63.147c0.966-1.993,1.897-3.912,2.828-5.831
			c0.44-0.907,0.856-1.83,1.34-2.715c0.111-0.203,0.453-0.373,0.697-0.383c0.246-0.011,0.641,0.129,0.731,0.319
			c1.343,2.791,2.647,5.604,3.958,8.411c0.027,0.061,0.021,0.135,0.03,0.203c-1.22,0.185-1.303,0.213-1.677-0.88
			c-0.354-1.037-0.918-1.412-2.008-1.293c-1.021,0.111-2.066,0-3.098,0.046c-0.234,0.013-0.507,0.235-0.67,0.438
			c-0.187,0.229-0.273,0.54-0.401,0.818C32.516,63.311,32.516,63.311,31.258,63.147z M36.12,55.534
			c-0.735,1.597-1.383,3.002-2.04,4.426c1.397,0,2.669,0,4.007,0C37.434,58.49,36.818,57.106,36.12,55.534z"/>
		<path fill-rule="evenodd" clip-rule="evenodd" fill="#C1C1C1" d="M80.423,54.233c0.099-0.013,0.234-0.038,0.369-0.038
			c0.208,0,0.415,0.019,0.719,0.033c0,0.279,0,0.527,0,0.775c0,1.62-0.021,3.243,0.008,4.862c0.028,1.598,0.902,2.533,2.369,2.602
			c1.678,0.081,2.718-0.867,2.751-2.573c0.032-1.62,0.008-3.24,0.008-4.859c0-0.254,0-0.505,0-0.799c0.412,0,0.751,0,1.188,0
			c0,0.418,0,0.809,0,1.199c0,1.432,0.011,2.864-0.003,4.299c-0.014,1.39-0.368,2.654-1.738,3.288
			c-1.494,0.688-3.018,0.652-4.443-0.238c-0.716-0.448-1.176-1.179-1.203-1.987C80.375,58.624,80.423,56.449,80.423,54.233z"/>
		<path fill-rule="evenodd" clip-rule="evenodd" fill="#C1C1C1" d="M101.395,62.199c0.345-0.254,0.644-0.475,0.957-0.705
			c0.896,0.948,1.961,1.209,3.163,0.794c0.627-0.219,1.122-0.614,1.163-1.356c0.043-0.771-0.446-1.151-1.085-1.382
			c-0.729-0.261-1.479-0.467-2.205-0.737c-1.276-0.477-1.828-1.215-1.79-2.325c0.037-1.082,0.76-1.941,1.953-2.317
			c1.544-0.486,3.195-0.164,4.186,0.867c-0.288,0.23-0.573,0.459-0.888,0.71c-0.854-0.862-1.864-0.963-2.939-0.601
			c-0.597,0.2-1.009,0.604-1.043,1.28c-0.034,0.661,0.349,1.062,0.915,1.28c0.919,0.353,1.876,0.618,2.777,1.012
			c1.075,0.469,1.542,1.32,1.338,2.443c-0.084,0.459-0.312,0.961-0.628,1.298C105.931,63.889,102.755,63.76,101.395,62.199z"/>
		<path fill-rule="evenodd" clip-rule="evenodd" fill="#C1C1C1" d="M26.917,55.027c-0.31,0.248-0.579,0.464-0.902,0.725
			c-0.611-0.634-1.367-0.899-2.222-0.763c-0.385,0.059-0.792,0.167-1.12,0.367c-0.909,0.558-0.887,1.714,0.047,2.227
			c0.488,0.266,1.045,0.405,1.57,0.605c0.568,0.218,1.173,0.373,1.696,0.672c1.306,0.742,1.512,2.561,0.456,3.625
			c-1.374,1.384-4.531,1.271-5.882-0.279c0.312-0.235,0.621-0.471,0.944-0.715c0.97,0.997,2.089,1.248,3.354,0.718
			c0.579-0.243,0.966-0.651,0.978-1.331c0.012-0.702-0.407-1.074-1-1.29c-0.771-0.281-1.564-0.502-2.33-0.796
			c-1.244-0.477-1.771-1.194-1.744-2.279c0.027-1.09,0.734-1.947,1.925-2.332C24.213,53.688,25.849,53.99,26.917,55.027z"/>
		<path fill-rule="evenodd" clip-rule="evenodd" fill="#C1C1C1" d="M163.013,55.054c-0.312,0.244-0.585,0.459-0.887,0.697
			c-0.816-0.836-1.777-0.95-2.814-0.644c-0.634,0.185-1.089,0.561-1.154,1.265c-0.069,0.738,0.379,1.139,0.987,1.372
			c0.897,0.347,1.838,0.591,2.714,0.98c1.2,0.538,1.654,1.653,1.239,2.862c-0.098,0.284-0.252,0.565-0.444,0.791
			c-1.281,1.496-4.64,1.422-5.946-0.16c0.157-0.132,0.311-0.269,0.473-0.393c0.149-0.114,0.307-0.21,0.475-0.324
			c0.89,0.961,1.957,1.191,3.157,0.783c0.638-0.218,1.118-0.634,1.156-1.364c0.039-0.763-0.458-1.146-1.1-1.374
			c-0.751-0.266-1.525-0.477-2.27-0.763c-1.231-0.469-1.726-1.171-1.696-2.307c0.026-1.062,0.662-1.855,1.81-2.259
			C160.289,53.661,162.065,53.985,163.013,55.054z"/>
		<path fill-rule="evenodd" clip-rule="evenodd" fill="#C1C1C1" d="M169.495,54.294c1.415,0,2.783-0.119,4.123,0.03
			c1.757,0.195,2.603,1.473,2.182,3.012c-0.31,1.136-1.191,1.6-2.251,1.733c-0.927,0.114-1.868,0.106-2.9,0.157
			c0,1.298,0,2.596,0,3.942c-0.434,0-0.771,0-1.153,0C169.495,60.201,169.495,57.25,169.495,54.294z M170.618,58.226
			c0.975-0.043,1.843-0.033,2.7-0.135c0.831-0.099,1.308-0.677,1.311-1.409c0-0.74-0.455-1.301-1.306-1.412
			c-0.763-0.102-1.545-0.089-2.319-0.078c-0.13,0-0.363,0.23-0.368,0.362C170.604,56.396,170.618,57.237,170.618,58.226z"/>
		<path fill-rule="evenodd" clip-rule="evenodd" fill="#C1C1C1" d="M70.494,62.237c1.583,0,3.051,0,4.55,0c0,0.35,0,0.621,0,0.938
			c-1.876,0-3.72,0-5.632,0c0-2.964,0-5.927,0-8.936c0.333,0,0.671,0,1.082,0C70.494,56.87,70.494,59.489,70.494,62.237z"/>
		<path fill-rule="evenodd" clip-rule="evenodd" fill="#C1C1C1" d="M95.304,63.177c-0.384,0-0.727,0-1.104,0c0-2.991,0-5.94,0-8.938
			c0.375,0,0.713,0,1.104,0C95.304,57.202,95.304,60.148,95.304,63.177z"/>
		<path fill-rule="evenodd" clip-rule="evenodd" fill="#C1C1C1" d="M150.554,54.239c0,2.974,0,5.919,0,8.921
			c-0.34,0-0.678,0-1.073,0c0-2.951,0-5.912,0-8.921C149.833,54.239,150.171,54.239,150.554,54.239z"/>
	</g>
</g>
</svg>
