<?xml version="1.0" encoding="utf-8"?>
<!-- Generator: Adobe Illustrator 16.0.0, SVG Export Plug-In . SVG Version: 6.00 Build 0)  -->
<!DOCTYPE svg PUBLIC "-//W3C//DTD SVG 1.1//EN" "http://www.w3.org/Graphics/SVG/1.1/DTD/svg11.dtd">
<svg version="1.1" id="Layer_1" xmlns="http://www.w3.org/2000/svg" xmlns:xlink="http://www.w3.org/1999/xlink" x="0px" y="0px"
	 width="169.737px" height="39.32px" viewBox="0 0 169.737 39.32" enable-background="new 0 0 169.737 39.32" xml:space="preserve">
<g>
	<path fill="#38AB49" d="M11.595,7.17v18.348c0,3.458-0.643,5.994-1.926,7.61c-1.284,1.613-3.542,2.422-6.77,2.422L0,35.284
		l0.496-3.814h1.83c2.238,0,3.358-1.222,3.358-3.663V7.17L2.823,6.026V2.86l11.634-0.19v3.356L11.595,7.17z"/>
	<path fill="#38AB49" d="M27.424,8.582c3.077,0,5.449,0.897,7.114,2.69c1.666,1.793,2.499,4.329,2.499,7.609
		c0,3.407-0.922,6.104-2.766,8.087c-1.844,1.983-4.316,2.976-7.419,2.976c-6.484,0-9.727-3.497-9.727-10.489
		c0-3.408,0.929-6.071,2.784-7.992C21.766,9.542,24.271,8.582,27.424,8.582z M27.234,12.969c-1.449,0-2.512,0.471-3.186,1.412
		c-0.673,0.941-1.01,2.569-1.01,4.882c0,2.188,0.318,3.782,0.954,4.787c0.635,1.005,1.652,1.506,3.052,1.506
		c1.398,0,2.428-0.495,3.089-1.486c0.661-0.992,0.992-2.658,0.992-4.998c0-2.059-0.312-3.591-0.934-4.596
		C29.567,13.471,28.581,12.969,27.234,12.969z"/>
	<path fill="#38AB49" d="M37.99,0.304L46.458,0v10.604c1.754-1.347,3.572-2.022,5.454-2.022c2.543,0,4.482,0.878,5.817,2.632
		c1.335,1.755,2.003,4.248,2.003,7.478c0,3.636-0.942,6.433-2.823,8.392c-1.882,1.959-4.628,2.937-8.239,2.937
		c-1.247,0-2.518-0.071-3.814-0.211c-1.296-0.141-2.289-0.272-2.975-0.401l-1.03-0.229V4.12L37.99,3.357V0.304z M46.458,14.8v10.452
		c0.584,0.203,1.525,0.304,2.822,0.304c3.026,0,4.54-2.16,4.54-6.484c0-3.991-1.246-5.988-3.738-5.988
		c-0.688,0-1.329,0.141-1.927,0.42c-0.597,0.279-1.036,0.571-1.315,0.877L46.458,14.8z"/>
	<path fill="#38AB49" d="M82.809,29.293l-7.553,0.267l-0.686-2.478c-0.229,0.203-0.534,0.462-0.916,0.781
		c-0.381,0.316-1.113,0.743-2.193,1.275c-1.081,0.535-2.104,0.804-3.071,0.804c-1.856,0-3.305-0.521-4.348-1.564
		c-1.043-1.042-1.563-2.518-1.563-4.425c0-4.195,3.051-6.294,9.154-6.294h2.67v-2.097c0-1.907-0.979-2.861-2.937-2.861
		c-0.585,0-1.157,0.051-1.717,0.152c-0.559,0.102-0.979,0.204-1.258,0.306l-0.381,0.114l-0.573,2.479h-3.433l-0.267-5.646
		c3.076-1.017,5.836-1.526,8.277-1.526c2.898,0,4.944,0.566,6.14,1.698c1.195,1.131,1.793,3.083,1.793,5.854v9.421l2.861,0.688
		V29.293z M67.971,23.382c0,1.524,0.75,2.288,2.25,2.288c0.61,0,1.252-0.184,1.926-0.553c0.673-0.369,1.202-0.744,1.583-1.125
		l0.573-0.534v-2.557h-2.174c-1.475,0-2.537,0.197-3.185,0.591C68.295,21.888,67.971,22.517,67.971,23.382z"/>
	<path fill="#38AB49" d="M85.25,33.755c0-0.965,0.33-1.832,0.991-2.593c0.661-0.763,1.323-1.283,1.983-1.563l1.031-0.421
		c-0.179-0.024-0.395-0.076-0.65-0.151c-0.254-0.076-0.59-0.33-1.01-0.762c-0.418-0.433-0.629-0.968-0.629-1.604
		c0-0.787,0.66-2.225,1.983-4.311c-1.959-1.297-2.938-3.28-2.938-5.949c0-2.518,0.845-4.449,2.538-5.798
		c1.691-1.347,3.897-2.022,6.618-2.022c1.702,0,3.203,0.306,4.5,0.916l6.562-0.153v3.052l-3.127,0.534
		c0,0.025,0.062,0.197,0.189,0.515c0.128,0.318,0.235,0.693,0.325,1.125c0.089,0.433,0.133,0.89,0.133,1.373
		c0,2.646-0.826,4.61-2.479,5.893c-1.653,1.285-3.878,1.927-6.675,1.927c-0.306,0-0.604-0.012-0.897-0.039
		c-0.293-0.024-0.534-0.056-0.726-0.094c-0.188-0.038-0.297-0.058-0.323-0.058l-0.152,2.557h5.646c2.441,0,4.323,0.507,5.645,1.524
		c1.323,1.019,1.984,2.479,1.984,4.386c0,2.188-0.896,3.941-2.689,5.265s-4.458,1.984-7.99,1.984c-3.204,0-5.646-0.42-7.325-1.26
		C86.089,37.189,85.25,35.765,85.25,33.755z M96.616,30.323h-4.004c-0.128,0.052-0.293,0.14-0.496,0.268
		c-0.204,0.127-0.477,0.406-0.82,0.84c-0.344,0.433-0.516,0.889-0.516,1.374c0,0.915,0.376,1.525,1.125,1.831
		c0.751,0.304,1.966,0.455,3.644,0.455c1.729,0,2.975-0.203,3.738-0.607c0.763-0.409,1.145-1.069,1.145-1.983
		c0-0.815-0.3-1.382-0.896-1.698C98.937,30.481,97.965,30.323,96.616,30.323z M94.978,12.511c-2.162,0-3.243,1.208-3.243,3.624
		c0,2.543,1.018,3.814,3.051,3.814c1.169,0,2.003-0.305,2.5-0.916c0.495-0.609,0.744-1.576,0.744-2.898
		C98.029,13.719,97.01,12.511,94.978,12.511z"/>
	<path fill="#38AB49" d="M108.441,9.269l7.896-0.305l0.343,2.632c0.204-0.229,0.483-0.509,0.838-0.839
		c0.356-0.33,0.999-0.776,1.929-1.335c0.928-0.56,1.771-0.84,2.536-0.84c0.612,0,1.2,0.058,1.773,0.173
		c0.572,0.114,0.998,0.234,1.277,0.362l0.382,0.152l-0.304,7.248h-3.318l-0.575-3.243c-0.661,0-1.334,0.179-2.021,0.534
		c-0.687,0.356-1.208,0.713-1.564,1.068L117.1,15.41v10.145l3.623,0.954v3.051h-12.281v-3.051l3.052-0.954V13.083l-3.052-0.763
		V9.269z"/>
	<path fill="#38AB49" d="M137.43,8.582c3.078,0,5.449,0.897,7.112,2.69c1.667,1.793,2.499,4.329,2.499,7.609
		c0,3.407-0.922,6.104-2.766,8.087s-4.314,2.976-7.419,2.976c-6.484,0-9.725-3.497-9.725-10.489c0-3.408,0.927-6.071,2.784-7.992
		C131.772,9.542,134.276,8.582,137.43,8.582z M137.238,12.969c-1.449,0-2.512,0.471-3.184,1.412
		c-0.674,0.941-1.011,2.569-1.011,4.882c0,2.188,0.317,3.782,0.954,4.787c0.633,1.005,1.651,1.506,3.051,1.506
		c1.397,0,2.428-0.495,3.089-1.486c0.661-0.992,0.993-2.658,0.993-4.998c0-2.059-0.312-3.591-0.936-4.596
		C139.573,13.471,138.587,12.969,137.238,12.969z"/>
	<path fill="#38AB49" d="M147.995,0.304L156.462,0v10.604c1.755-1.347,3.573-2.022,5.457-2.022c2.542,0,4.479,0.878,5.816,2.632
		c1.334,1.755,2.002,4.248,2.002,7.478c0,3.636-0.942,6.433-2.823,8.392s-4.628,2.937-8.239,2.937c-1.245,0-2.518-0.071-3.813-0.211
		c-1.296-0.141-2.289-0.272-2.974-0.401l-1.031-0.229V4.12l-2.861-0.763V0.304z M156.462,14.8v10.452
		c0.588,0.203,1.526,0.304,2.824,0.304c3.026,0,4.54-2.16,4.54-6.484c0-3.991-1.247-5.988-3.737-5.988
		c-0.688,0-1.331,0.141-1.928,0.42c-0.598,0.279-1.038,0.571-1.317,0.877L156.462,14.8z"/>
</g>
</svg>
