<?xml version="1.0" encoding="utf-8"?>
<!-- Generator: Adobe Illustrator 16.0.0, SVG Export Plug-In . SVG Version: 6.00 Build 0)  -->
<!DOCTYPE svg PUBLIC "-//W3C//DTD SVG 1.1//EN" "http://www.w3.org/Graphics/SVG/1.1/DTD/svg11.dtd">
<svg version="1.1" id="Layer_1" xmlns="http://www.w3.org/2000/svg" xmlns:xlink="http://www.w3.org/1999/xlink" x="0px" y="0px"
	 width="346px" height="59px" viewBox="0 0 346 59" enable-background="new 0 0 346 59" xml:space="preserve">
<g>
	<path fill="#2D272A" d="M44.983,45.37v-2.925V22.23c0-1.69-0.434-3.011-1.3-3.965c-0.91-0.953-2.188-1.43-3.835-1.43
		c-1.82,0-3.728,0.499-5.72,1.495c-1.95,1.04-3.77,2.405-5.46,4.095V45.37h-3.38V22.23c0-1.69-0.434-3.011-1.3-3.965
		c-0.824-0.953-2.124-1.43-3.9-1.43c-1.777,0-3.663,0.52-5.655,1.56c-2.124,1.084-3.944,2.34-5.46,3.77v20.28h5.07v2.925h-8.45
		v-2.925V17.55h-5.59v-2.925h8.97v4.16c1.69-1.56,3.466-2.772,5.33-3.64c1.993-0.91,4.008-1.365,6.045-1.365
		c1.95,0,3.618,0.455,5.005,1.365c1.386,0.91,2.361,2.297,2.925,4.16c1.17-1.3,2.946-2.556,5.33-3.77
		c2.253-1.17,4.376-1.755,6.37-1.755c2.557,0,4.593,0.715,6.11,2.145c1.516,1.517,2.275,3.488,2.275,5.915v20.605h4.81v2.925H44.983
		z"/>
	<path fill="#2D272A" d="M76.313,45.37v-4.355c-1.69,1.517-3.51,2.688-5.46,3.51c-2.08,0.867-3.965,1.3-5.655,1.3
		c-2.774,0-5.049-0.888-6.825-2.665c-1.82-1.82-2.73-3.965-2.73-6.435c0-2.73,1.04-4.982,3.12-6.76
		c2.123-1.82,4.917-2.73,8.385-2.73c1.213,0,2.643,0.195,4.29,0.585c1.603,0.39,3.228,1.04,4.875,1.95v-7.28
		c0-2.253-0.737-3.856-2.21-4.81c-1.517-0.997-3.51-1.495-5.98-1.495c-0.65,0-1.376,0.087-2.177,0.26
		c-0.803,0.173-1.55,0.357-2.243,0.552c-0.694,0.195-1.518,0.445-2.47,0.748l-0.845-2.015c0.996-0.39,1.885-0.715,2.665-0.975
		c0.78-0.26,1.635-0.487,2.567-0.682c0.931-0.195,1.809-0.292,2.632-0.292c3.727,0,6.565,0.715,8.515,2.145
		c1.95,1.43,2.925,3.619,2.925,6.565v19.955h5.135v2.925H76.313z M76.313,32.5c-1.3-0.823-2.644-1.473-4.03-1.95
		c-1.518-0.52-3.034-0.78-4.55-0.78c-2.73,0-4.854,0.694-6.37,2.08c-1.518,1.387-2.275,3.099-2.275,5.135
		c0,1.69,0.606,3.142,1.82,4.355c1.256,1.257,2.946,1.885,5.07,1.885c1.82,0,3.662-0.476,5.525-1.43
		c1.95-0.996,3.553-2.21,4.81-3.64V32.5z"/>
	<path fill="#2D272A" d="M91.133,56.225c-0.868,0.823-1.94,1.462-3.218,1.917c-1.279,0.455-2.741,0.639-4.388,0.553V55.77
		c1.213,0.086,2.243-0.032,3.088-0.357c0.845-0.325,1.549-0.791,2.112-1.397c1.083-1.214,1.625-3.099,1.625-5.655V17.55h-5.655
		v-2.925h9.035v34.58C93.733,52.281,92.866,54.622,91.133,56.225z M92.953,5.005c-0.52,0.52-1.127,0.78-1.82,0.78
		c-0.694,0-1.3-0.26-1.82-0.78c-0.52-0.52-0.78-1.126-0.78-1.82c0-0.736,0.26-1.365,0.78-1.885s1.126-0.78,1.82-0.78
		c0.692,0,1.3,0.26,1.82,0.78s0.78,1.127,0.78,1.82C93.733,3.857,93.473,4.485,92.953,5.005z"/>
	<path fill="#2D272A" d="M125.908,41.6c-2.99,3.12-6.652,4.68-10.985,4.68c-4.377,0-8.017-1.56-10.92-4.68
		c-2.947-3.163-4.42-7.02-4.42-11.57c0-4.637,1.451-8.493,4.355-11.57c2.903-3.12,6.565-4.68,10.985-4.68
		c4.333,0,7.973,1.56,10.92,4.68c2.946,3.164,4.42,7.02,4.42,11.57C130.263,34.58,128.811,38.438,125.908,41.6z M123.503,20.605
		c-2.253-2.513-5.114-3.77-8.58-3.77c-3.467,0-6.305,1.235-8.515,3.705c-2.254,2.514-3.38,5.677-3.38,9.49
		c0,3.813,1.105,6.955,3.315,9.425c2.253,2.514,5.113,3.77,8.58,3.77c3.466,0,6.305-1.235,8.515-3.705
		c2.252-2.513,3.38-5.676,3.38-9.49C126.818,26.217,125.713,23.075,123.503,20.605z"/>
	<path fill="#2D272A" d="M156.457,17.55c-4.29,0-7.454,0.889-9.49,2.665c-1.994,1.777-2.99,4.593-2.99,8.45v13.26h6.305v3.965
		h-10.725v-3.445V18.07h-5.85v-3.965h10.27v4.225c0.39-0.562,0.866-1.147,1.43-1.755c0.563-0.606,1.191-1.105,1.885-1.495
		c0.606-0.303,1.289-0.585,2.047-0.845c0.758-0.26,1.549-0.465,2.373-0.618c0.823-0.151,1.646-0.27,2.47-0.357
		c0.823-0.086,1.582-0.108,2.275-0.065l1.755,0.065v4.29H156.457z"/>
	<path fill="#2D272A" d="M161.527,31.265c0.26,3.293,1.43,5.98,3.51,8.06c2.34,2.47,5.33,3.705,8.97,3.705
		c0.606,0,1.343-0.098,2.21-0.292c0.866-0.195,1.711-0.423,2.535-0.683c0.823-0.26,1.549-0.509,2.177-0.748
		c0.628-0.238,1.008-0.4,1.138-0.487l1.04,3.51c-1.387,0.52-2.567,0.933-3.542,1.235c-0.975,0.303-2.026,0.585-3.153,0.845
		c-1.127,0.26-2.102,0.39-2.925,0.39c-4.724,0-8.645-1.582-11.765-4.745c-3.077-3.207-4.615-7.215-4.615-12.025
		c0-4.853,1.516-8.861,4.55-12.025c3.033-3.163,6.912-4.745,11.635-4.745c4.636,0,8.385,1.56,11.245,4.68
		c1.43,1.518,2.535,3.37,3.315,5.558c0.78,2.189,1.235,4.777,1.365,7.768H161.527z M180.897,20.15
		c-1.994-1.993-4.615-2.99-7.865-2.99c-3.337,0-6.11,1.214-8.32,3.64c-0.78,0.867-1.42,1.842-1.917,2.925
		c-0.499,1.083-0.877,2.275-1.138,3.575h22.88C184.018,24.354,182.804,21.97,180.897,20.15z"/>
	<path fill="#2D272A" d="M217.232,18.07l-10.4,28.275h-3.835L192.143,18.07h-5.265v-3.965h13.78v3.965h-3.965l8.125,21.97
		l8.385-22.685l1.17-3.25h7.735v3.965H217.232z"/>
	<path fill="#2D272A" d="M230.362,45.89v-2.925h-0.065V18.07h-5.395v-3.965h9.815v27.82h5.265v3.965H230.362z M233.807,5.395
		c-0.693,0.607-1.43,0.91-2.21,0.91c-0.78,0-1.517-0.303-2.21-0.91c-0.607-0.692-0.91-1.43-0.91-2.21
		c0-0.823,0.302-1.581,0.91-2.275c0.693-0.606,1.43-0.91,2.21-0.91c0.78,0,1.517,0.304,2.21,0.91c0.606,0.694,0.91,1.43,0.91,2.21
		C234.717,3.944,234.413,4.703,233.807,5.395z"/>
	<path fill="#2D272A" d="M244.142,31.265c0.26,3.293,1.43,5.98,3.51,8.06c2.34,2.47,5.33,3.705,8.97,3.705
		c0.606,0,1.343-0.098,2.21-0.292c0.866-0.195,1.711-0.423,2.535-0.683c0.823-0.26,1.549-0.509,2.177-0.748
		c0.628-0.238,1.008-0.4,1.138-0.487l1.04,3.51c-1.387,0.52-2.567,0.933-3.542,1.235c-0.975,0.303-2.026,0.585-3.153,0.845
		c-1.127,0.26-2.102,0.39-2.925,0.39c-4.724,0-8.645-1.582-11.765-4.745c-3.077-3.207-4.615-7.215-4.615-12.025
		c0-4.853,1.516-8.861,4.55-12.025c3.033-3.163,6.912-4.745,11.635-4.745c4.636,0,8.385,1.56,11.245,4.68
		c1.43,1.518,2.535,3.37,3.315,5.558c0.78,2.189,1.235,4.777,1.365,7.768H244.142z M263.512,20.15
		c-1.994-1.993-4.615-2.99-7.865-2.99c-3.337,0-6.11,1.214-8.32,3.64c-0.78,0.867-1.42,1.842-1.917,2.925
		c-0.499,1.083-0.877,2.275-1.138,3.575h22.88C266.632,24.354,265.418,21.97,263.512,20.15z"/>
	<path fill="#2D272A" d="M314.862,18.07l-9.165,28.275h-3.9l-7.605-25.61l-7.345,25.61h-4.095l-8.775-28.275h-4.16v-3.965h7.28
		l0.975,3.315l6.565,21.515l6.63-20.865h-3.38v-3.965h12.675v3.965h-3.25l6.37,20.28l7.02-20.93l0.975-3.315h7.67v3.965H314.862z"/>
	<path fill="#2D272A" d="M342.617,44.265c-2.167,1.732-5.092,2.6-8.775,2.6c-1.95,0-3.792-0.369-5.525-1.105
		c-1.3-0.606-2.448-1.495-3.445-2.665v2.795h-4.03v-11.7h4.03c0.042,1.604,0.27,2.948,0.683,4.03c0.411,1.083,1.05,1.994,1.917,2.73
		c1.732,1.517,3.965,2.275,6.695,2.275c2.08,0,3.921-0.562,5.525-1.69c1.517-1.083,2.275-2.448,2.275-4.095
		c0-1.69-0.564-2.925-1.69-3.705c-1.083-0.823-3.337-1.538-6.76-2.145c-3.77-0.65-6.522-1.625-8.255-2.925
		c-1.82-1.256-2.73-3.336-2.73-6.24c0-2.86,0.996-5.091,2.99-6.695c2.037-1.646,4.441-2.47,7.215-2.47c1.56,0,3.011,0.26,4.355,0.78
		c1.342,0.52,2.556,1.344,3.64,2.47v-1.495h3.9v9.815h-3.9c-0.043-1.3-0.26-2.405-0.65-3.315s-0.954-1.711-1.69-2.405
		c-1.56-1.343-3.424-2.015-5.59-2.015c-1.994,0-3.51,0.52-4.55,1.56c-1.083,1.04-1.625,2.253-1.625,3.64
		c0,1.518,0.498,2.6,1.495,3.25c1.04,0.737,3.141,1.388,6.305,1.95c2.34,0.434,4.29,0.932,5.85,1.495
		c1.56,0.563,2.708,1.213,3.445,1.95c1.516,1.474,2.275,3.533,2.275,6.175C345.997,40.062,344.869,42.445,342.617,44.265z"/>
</g>
</svg>
