<?xml version="1.0" encoding="utf-8"?>
<!-- Generator: Adobe Illustrator 16.0.0, SVG Export Plug-In . SVG Version: 6.00 Build 0)  -->
<!DOCTYPE svg PUBLIC "-//W3C//DTD SVG 1.1//EN" "http://www.w3.org/Graphics/SVG/1.1/DTD/svg11.dtd">
<svg version="1.1" id="Layer_1" xmlns="http://www.w3.org/2000/svg" xmlns:xlink="http://www.w3.org/1999/xlink" x="0px" y="0px"
	 width="285px" height="32px" viewBox="0 0 285 32" enable-background="new 0 0 285 32" xml:space="preserve">
<g>
	<path fill="#2D272A" d="M0.191,7h1.47v3.326c0,0.805-0.14,1.435-0.14,1.435h0.07c0.875-2.695,2.835-4.9,5.601-4.9
		c0.525,0,1.015,0.105,1.015,0.105v1.47c0,0-0.42-0.07-0.805-0.07c-2.73,0-4.445,2.31-5.215,4.9
		c-0.385,1.225-0.525,2.521-0.525,3.676v7.561h-1.47V7z"/>
	<path fill="#2D272A" d="M18.882,6.581c4.761,0,7.141,3.746,7.141,7.981c0,0.385-0.07,0.945-0.07,0.945H11.917
		c0,5.076,3.43,7.981,7.491,7.981c3.36,0,5.425-2.205,5.425-2.205l0.805,1.225c0,0-2.45,2.415-6.23,2.415
		c-4.936,0-9.031-3.57-9.031-9.136C10.376,9.871,14.401,6.581,18.882,6.581z M24.482,14.141c-0.175-4.27-2.73-6.195-5.635-6.195
		c-3.22,0-6.196,2.1-6.826,6.195H24.482z"/>
	<path fill="#2D272A" d="M28.506,7h1.575l5.391,13.722c0.315,0.84,0.595,1.89,0.595,1.89h0.07c0,0,0.28-1.05,0.595-1.89L42.123,7
		h1.54l-6.861,17.502h-1.4L28.506,7z"/>
	<path fill="#2D272A" d="M47.919,0h1.75v2.555h-1.75V0z M47.371,7h1.47v17.502h-1.47V7z"/>
	<path fill="#2D272A" d="M62.281,6.581c4.761,0,7.141,3.746,7.141,7.981c0,0.385-0.07,0.945-0.07,0.945H55.316
		c0,5.076,3.43,7.981,7.491,7.981c3.36,0,5.425-2.205,5.425-2.205l0.805,1.225c0,0-2.45,2.415-6.23,2.415
		c-4.936,0-9.031-3.57-9.031-9.136C53.775,9.871,57.801,6.581,62.281,6.581z M67.882,14.141c-0.175-4.27-2.73-6.195-5.635-6.195
		c-3.22,0-6.196,2.1-6.826,6.195H67.882z"/>
	<path fill="#2D272A" d="M72.01,7h1.575l4.761,13.722c0.28,0.84,0.595,1.89,0.595,1.89h0.07c0,0,0.315-1.05,0.595-1.89l4.795-13.651
		h1.645l4.795,13.651c0.28,0.84,0.595,1.89,0.595,1.89h0.07c0,0,0.28-1.015,0.595-1.89L96.863,7h1.575l-6.161,17.502h-1.575
		l-4.866-13.582c-0.315-0.84-0.595-1.89-0.595-1.89h-0.07c0,0-0.28,1.05-0.595,1.89l-4.831,13.582h-1.575L72.01,7z"/>
	<path fill="#2D272A" d="M109.811,29.613c0,0,0.98,0.84,2.17,0.84c1.68,0,2.73-1.505,3.431-3.15l1.26-2.905L109.425,7H111
		l5.775,13.967c0.35,0.84,0.63,1.645,0.63,1.645h0.07c0,0,0.245-0.805,0.595-1.645L123.847,7h1.575l-8.996,21.597
		c-0.77,1.82-2.24,3.255-4.445,3.255c-1.68,0-2.835-0.98-2.835-0.98L109.811,29.613z"/>
	<path fill="#2D272A" d="M136.831,6.581c5.005,0,9.066,3.956,9.066,9.066c0,5.215-4.061,9.276-9.066,9.276s-9.066-4.061-9.066-9.276
		C127.765,10.536,131.826,6.581,136.831,6.581z M136.831,23.487c4.166,0,7.526-3.396,7.526-7.841c0-4.34-3.36-7.631-7.526-7.631
		s-7.526,3.291-7.526,7.631C129.305,20.092,132.666,23.487,136.831,23.487z"/>
	<path fill="#2D272A" d="M150.515,7h1.47v10.571c0,3.045,0.385,5.916,4.305,5.916c4.375,0,7.176-3.851,7.176-7.946V7h1.47v17.502
		h-1.47v-3.08c0-0.805,0.14-1.436,0.14-1.436h-0.07c-0.595,1.646-3.01,4.936-7.246,4.936c-4.305,0-5.775-2.38-5.775-6.826V7z"/>
	<path fill="#2D272A" d="M171.095,7h1.47v3.326c0,0.805-0.14,1.435-0.14,1.435h0.07c0.875-2.695,2.835-4.9,5.601-4.9
		c0.525,0,1.015,0.105,1.015,0.105v1.47c0,0-0.42-0.07-0.805-0.07c-2.73,0-4.445,2.31-5.215,4.9
		c-0.385,1.225-0.525,2.521-0.525,3.676v7.561h-1.47V7z"/>
	<path fill="#2D272A" d="M192.62,7h1.47v3.081c0,0.805-0.14,1.435-0.14,1.435h0.07c0.875-2.625,3.99-4.936,6.721-4.936
		c3.5,0,5.146,1.645,5.531,4.761h0.07c0.98-2.451,3.64-4.761,6.651-4.761c4.515,0,5.845,2.66,5.845,6.826v11.096h-1.47V13.931
		c0-3.29-0.666-5.985-4.375-5.985c-2.905,0-5.391,2.59-6.161,5.32c-0.245,0.805-0.35,1.68-0.35,2.695v8.541h-1.47V13.931
		c0-3.01-0.42-5.985-4.271-5.985c-3.115,0-5.565,2.73-6.371,5.636c-0.21,0.735-0.28,1.54-0.28,2.38v8.541h-1.47V7z"/>
	<path fill="#2D272A" d="M234.166,13.826h1.155v-0.595c0-3.886-1.995-5.216-4.795-5.216c-3.045,0-5.005,1.68-5.005,1.68l-0.84-1.19
		c0,0,2.1-1.925,5.916-1.925c4.025,0,6.196,2.24,6.196,6.616v11.306h-1.47v-2.31c0-0.945,0.14-1.575,0.14-1.575h-0.07
		c0.035,0-1.575,4.305-6.125,4.305c-2.835,0-5.951-1.575-5.951-5.075C223.314,13.896,231.05,13.826,234.166,13.826z M229.335,23.557
		c3.815,0,5.985-3.955,5.985-7.42v-0.945h-1.12c-2.975,0-9.346,0-9.346,4.55C224.855,21.597,226.36,23.557,229.335,23.557z"/>
	<path fill="#2D272A" d="M244.174,7v18.202c0,5.811-3.78,6.476-5.565,6.476c-0.525,0-0.875-0.07-0.875-0.07v-1.365
		c0,0,0.315,0.07,0.77,0.07c1.4,0,4.2-0.56,4.2-5.076V7H244.174z M243.252,0h1.75v2.555h-1.75V0z"/>
	<path fill="#2D272A" d="M258.104,6.581c5.005,0,9.066,3.956,9.066,9.066c0,5.215-4.061,9.276-9.066,9.276s-9.066-4.061-9.066-9.276
		C249.039,10.536,253.099,6.581,258.104,6.581z M258.104,23.487c4.166,0,7.526-3.396,7.526-7.841c0-4.34-3.36-7.631-7.526-7.631
		s-7.526,3.291-7.526,7.631C250.579,20.092,253.939,23.487,258.104,23.487z"/>
	<path fill="#2D272A" d="M272.033,7h1.47v3.326c0,0.805-0.14,1.435-0.14,1.435h0.07c0.875-2.695,2.835-4.9,5.601-4.9
		c0.525,0,1.015,0.105,1.015,0.105v1.47c0,0-0.42-0.07-0.805-0.07c-2.73,0-4.445,2.31-5.215,4.9
		c-0.385,1.225-0.525,2.521-0.525,3.676v7.561h-1.47V7z"/>
	<path fill="#2D272A" d="M282.674,22.297h2.135v2.205h-2.135V22.297z"/>
</g>
</svg>
