<?xml version="1.0" encoding="utf-8"?>
<!-- Generator: Adobe Illustrator 16.0.0, SVG Export Plug-In . SVG Version: 6.00 Build 0)  -->
<!DOCTYPE svg PUBLIC "-//W3C//DTD SVG 1.1//EN" "http://www.w3.org/Graphics/SVG/1.1/DTD/svg11.dtd">
<svg version="1.1" id="Layer_1" xmlns="http://www.w3.org/2000/svg" xmlns:xlink="http://www.w3.org/1999/xlink" x="0px" y="0px"
	 width="180px" height="180px" viewBox="0 0 180 180" enable-background="new 0 0 180 180" xml:space="preserve">
<g>
	<path fill="#FFFFFF" d="M104.826,91.699c0.205-0.203,0.455-0.547,0.416-0.78c-0.426-2.472-0.904-4.937-1.367-7.404
		c-0.112-0.055-0.225-0.107-0.338-0.162c-0.321,0.397-0.61,0.824-0.971,1.184c-4.479,4.477-8.859,9.06-13.501,13.362
		c-2.531,2.348-4.222,4.864-4.428,8.358c-0.088,1.482-0.547,2.943-0.824,4.418c-0.123,0.654-0.204,1.316-0.322,2.1
		c0.253-0.14,0.329-0.166,0.38-0.215C90.859,105.608,97.85,98.659,104.826,91.699z"/>
	<path fill="#FFFFFF" d="M83.646,119.095c7.111-7.117,14.215-14.246,21.394-21.295c1.093-1.072,1.502-2.029,0.755-3.498
		c-0.319,0.303-0.609,0.564-0.886,0.838L84.07,115.817c-1.387,1.355-1.968,2.834-1.866,4.818
		C82.763,120.202,83.147,119.593,83.646,119.095z"/>
	<path fill="#FFFFFF" d="M93.384,119.06c4.66-4.639,9.347-9.252,14.004-13.896c0.241-0.243,0.458-0.694,0.41-1.006
		c-0.233-1.518-0.561-3.02-0.883-4.66c-0.258,0.189-0.363,0.248-0.443,0.328c-8.311,8.267-16.619,16.537-24.923,24.809
		c-0.192,0.193-0.447,0.408-0.497,0.65c-0.484,2.381-0.935,4.77-1.459,7.503c0.607-0.57,0.953-0.878,1.28-1.207
		C85.044,127.409,89.201,123.222,93.384,119.06z"/>
	<path fill="#FFFFFF" d="M102.036,79.124c-0.416-0.195-0.912-0.303-1.373-0.308c-2.854-0.025-5.711-0.027-8.565-0.004
		c-1.383,0.012-2.321,0.785-2.588,2.147c-1.025,5.259-2.022,10.525-3.098,16.13c0.435-0.404,0.637-0.582,0.828-0.77
		c5.045-5.025,10.092-10.05,15.136-15.076C103.319,80.302,103.236,79.689,102.036,79.124z"/>
	<path fill="#FFFFFF" d="M89.188,74.461c0.539,1.584,1.54,2.231,3.254,2.25c1.351,0.016,2.699,0.004,4.049,0.004V76.71
		c1.431,0,2.86,0.021,4.289-0.007c1.334-0.028,2.338-0.719,2.737-1.889c0.942-2.766,1.872-5.533,2.771-8.312
		c0.445-1.378,0.059-2.588-1.125-3.462c-2.293-1.696-4.606-3.368-6.937-5.014c-1.155-0.816-2.405-0.822-3.557-0.01
		c-2.367,1.664-4.712,3.357-7.025,5.094c-1.078,0.807-1.492,1.953-1.083,3.266C87.404,69.08,88.271,71.778,89.188,74.461z"/>
	<path fill="#FFFFFF" d="M113.471,133.669c-7.329,7.291-14.604,14.527-21.897,21.784c0.99,0.833,2.06,1.773,3.168,2.664
		c1.148,0.918,2.305,0.916,3.455-0.051c5.155-4.322,10.294-8.664,15.431-13.008c0.999-0.846,1.554-1.977,1.35-3.256
		C114.539,139.046,113.967,136.312,113.471,133.669z"/>
	<path fill="#FFFFFF" d="M109.556,118.702c0.704-0.695,0.799-1.393,0.64-2.229c-0.549-2.867-1.116-5.728-1.719-8.808
		c-0.43,0.398-0.72,0.652-0.991,0.924c-8.609,8.568-17.152,17.207-25.875,25.66c-2.148,2.08-3.452,4.284-3.702,7.205
		c-0.108,1.262,0.155,2.381,1.017,3.277c0.705,0.734,1.538,1.344,2.44,2.115c2.393-2.422,4.713-4.799,7.065-7.145
		C95.46,132.688,102.489,125.675,109.556,118.702z"/>
	<path fill="#FFFFFF" d="M0,0v180h180V0H0z M156.542,132.534c-5.336,16.137-16.077,27.469-31.607,33.998
		c-19.526,8.207-39.377,7.525-59.039,0.289c-8.111-2.986-13.991-8.777-19.094-15.786c-8.797-12.083-14.243-25.503-17.072-39.927
		c-2.562-13.064-2.168-26.332,3.183-38.662c5.788-13.339,15.894-22.038,31.024-23.765c1.455-0.167,2.909-0.344,4.365-0.504
		l14.68,14.124c0,0,2.08,1.248,3.005,0c0.928-1.249,7.962-6.102,7.962-6.102l-13.818-8.25l-0.33-0.07
		c0.249,0.025,0.498,0.039,0.748,0.07c1.59,0.199,3.29,0.353,4.696,1.027c2.535,1.219,4.426,0.331,6.754-1.418
		c-18.007-3.193-35.581-6.52-52.129-13.648c-2.04-1.29-4.083-2.579-6.123-3.868c-1.08-1.137-2.296-2.102-3.681-2.846l-2.053-1.677
		c-0.343-0.764-0.906-1.29-1.704-1.562c-0.917-1.239-2.025-2.286-3.261-3.202c-0.276-0.781-0.761-1.375-1.538-1.711
		c-1.197-1.537-2.361-3.105-3.604-4.605c-0.948-1.139-0.581-1.658,0.713-1.952c3.469-0.785,6.931-1.595,10.394-2.394
		c1.27-0.108,2.588,0.23,3.798-0.415c0.342-0.066,0.686-0.137,1.028-0.206c1.618,0.233,3.233,0.323,4.851-0.001
		c3.209,0.266,6.419,0.529,9.629,0.795c2.474,0.564,4.95,1.131,7.425,1.696c1.476,0.481,2.954,0.962,4.43,1.442
		c4.92,2.325,9.953,4.399,14.571,7.35c9.019,5.764,15.807,13.348,19.844,23.287c0.165,0.402,0.381,0.784,0.78,1.596
		c1.016-3.562-0.061-6.619-0.396-9.672c-0.252-2.295-0.92-4.545-1.224-6.838c-0.46-3.453,1.39-4.898,4.662-3.711
		c1.084,0.395,2.152,0.895,3.141,1.49c2.671,1.61,3.33,3.407,2.24,6.331c-1.387,3.715-2.287,7.502-2.187,11.489
		c0.052,2.083,0.417,3.285,3.215,3.209c1.63-0.043,3.225-0.008,4.806,0.066l-10.453,8.316c0,0,7.619,5.271,8.499,6.243
		c0.883,0.97,1.898-0.76,1.898-0.76l10.475-12.371c10.866,2.582,20.278,8.469,28.037,17.783c4.829,5.793,7.1,12.875,8.56,20.234
		c0.384,1.925,1.328,3.771,1.706,5.755C160.875,106.456,160.823,119.583,156.542,132.534z"/>
	<path fill="#FFFFFF" d="M112.714,129.872c-0.22-1.4-0.516-2.789-0.781-4.154c-8.524,8.484-16.988,16.906-25.51,25.386
		c0.944,0.794,1.958,1.649,2.943,2.477c0.166-0.09,0.247-0.113,0.3-0.166c7.583-7.539,15.166-15.077,22.73-22.631
		C112.607,130.575,112.76,130.157,112.714,129.872z"/>
	<path fill="#FFFFFF" d="M110.91,121.095c-9.187,9.174-18.335,18.307-27.509,27.463c0.262,0.211,0.597,0.48,0.938,0.756
		c0.166-0.142,0.293-0.235,0.402-0.346c8.652-8.602,17.295-17.211,25.959-25.803C111.422,122.448,111.386,121.798,110.91,121.095z"
		/>
</g>
</svg>
