<?xml version="1.0" encoding="utf-8"?>
<!-- Generator: Adobe Illustrator 16.0.0, SVG Export Plug-In . SVG Version: 6.00 Build 0)  -->
<!DOCTYPE svg PUBLIC "-//W3C//DTD SVG 1.1//EN" "http://www.w3.org/Graphics/SVG/1.1/DTD/svg11.dtd">
<svg version="1.1" id="Layer_1" xmlns="http://www.w3.org/2000/svg" xmlns:xlink="http://www.w3.org/1999/xlink" x="0px" y="0px"
	 width="13.968px" height="18px" viewBox="6.361 0 13.968 18" enable-background="new 6.361 0 13.968 18" xml:space="preserve">
<path fill="#979897" d="M20.229,16.948l-3.475-5.337c1.548-1.185,2.553-3.043,2.553-5.137c0-3.57-2.904-6.474-6.474-6.474
	C9.266,0,6.361,2.904,6.361,6.474c0,3.569,2.905,6.473,6.473,6.473c0.98,0,1.906-0.227,2.74-0.617l3.475,5.34
	c0.128,0.213,0.355,0.33,0.59,0.33c0.123,0,0.248-0.032,0.358-0.102C20.323,17.7,20.428,17.275,20.229,16.948z M7.744,6.474
	c0-2.806,2.283-5.091,5.09-5.091c2.809,0,5.091,2.283,5.091,5.091c0,1.832-0.976,3.435-2.433,4.331
	c-0.01,0.006-0.021,0.006-0.031,0.012c-0.011,0.007-0.016,0.018-0.023,0.022c-0.764,0.456-1.651,0.724-2.604,0.724
	C10.027,11.564,7.744,9.281,7.744,6.474z"/>
</svg>
